FILE "psxeg.bin" BINARY
  TRACK 01 MODE2/2352
    INDEX 01 00:00:00
  TRACK 02 AUDIO
    INDEX 00 00:14:53
    INDEX 01 00:16:53
  TRACK 03 AUDIO
    INDEX 00 04:37:34
    INDEX 01 04:39:34
